<svg xmlns="http://www.w3.org/2000/svg" viewBox="0 0 512 512">
  <defs>
    <linearGradient id="bg" x1="76" y1="52" x2="436" y2="460" gradientUnits="userSpaceOnUse">
      <stop stop-color="#10233d" />
      <stop offset="0.52" stop-color="#07111f" />
      <stop offset="1" stop-color="#02050c" />
    </linearGradient>
    <linearGradient id="glow" x1="108" y1="80" x2="410" y2="434" gradientUnits="userSpaceOnUse">
      <stop stop-color="#5fff7b" />
      <stop offset="0.58" stop-color="#28ffcf" />
      <stop offset="1" stop-color="#ffb649" />
    </linearGradient>
    <filter id="shadow" x="-40%" y="-40%" width="180%" height="180%" color-interpolation-filters="sRGB">
      <feDropShadow dx="0" dy="18" stdDeviation="28" flood-color="#5fff7b" flood-opacity="0.22" />
    </filter>
  </defs>
  <rect width="512" height="512" rx="118" fill="url(#bg)" />
  <circle cx="126" cy="98" r="112" fill="#5fff7b" opacity="0.12" />
  <circle cx="408" cy="128" r="92" fill="#ffb649" opacity="0.12" />
  <path
    d="M160 142h192c12 0 22 10 22 22v50c0 74-47 134-112 145v38h58c12 0 22 10 22 22v12H170v-12c0-12 10-22 22-22h58v-38c-65-11-112-71-112-145v-50c0-12 10-22 22-22Z"
    fill="#07111f"
    stroke="url(#glow)"
    stroke-width="18"
    filter="url(#shadow)"
  />
  <path
    d="M138 181H96c0 58 28 101 73 112M374 181h42c0 58-28 101-73 112"
    fill="none"
    stroke="url(#glow)"
    stroke-width="18"
    stroke-linecap="round"
  />
  <text
    x="256"
    y="286"
    text-anchor="middle"
    font-family="Arial Black, Arial, sans-serif"
    font-size="128"
    font-weight="900"
    fill="#5fff7b"
    letter-spacing="-8"
  >
    26
  </text>
  <path d="M188 327h136" stroke="#ffb649" stroke-width="18" stroke-linecap="round" opacity="0.95" />
</svg>
